<svg width="29" height="26" viewBox="0 0 29 26" fill="none" xmlns="http://www.w3.org/2000/svg">
<path fill-rule="evenodd" clip-rule="evenodd" d="M15.3389 4C14.7866 4 14.3389 4.44772 14.3389 5V25.0001C14.3389 25.5524 14.7866 26.0001 15.3389 26.0001H16.6569C17.2091 26.0001 17.6569 25.5524 17.6569 25.0001V5C17.6569 4.44772 17.2091 4 16.6569 4H15.3389ZM7.49426 9.03653C7.49426 8.48425 7.94197 8.03653 8.49426 8.03653H9.81219C10.3645 8.03653 10.8122 8.48425 10.8122 9.03653V25.0001C10.8122 25.5524 10.3645 26.0001 9.81219 26.0001H8.49426C7.94197 26.0001 7.49426 25.5524 7.49426 25.0001V9.03653ZM0 15.3934C0 14.8411 0.447715 14.3934 1 14.3934H2.31794C2.87022 14.3934 3.31794 14.8411 3.31794 15.3934V24.9994C3.31794 25.5517 2.87022 25.9994 2.31794 25.9994H1C0.447715 25.9994 0 25.5517 0 24.9994V15.3934Z" fill="#3E4D31"/>
<circle cx="21" cy="8" r="7.5" fill="#E7E7E7" stroke="white"/>
<path d="M21.13 12.15C20.6633 12.15 20.2467 12.045 19.88 11.835C19.5167 11.6217 19.2283 11.3333 19.015 10.97C18.805 10.6033 18.7 10.1867 18.7 9.72V7.08C18.7 6.61333 18.805 6.19667 19.015 5.83C19.2283 5.46333 19.5167 5.175 19.88 4.965C20.2467 4.755 20.6633 4.65 21.13 4.65C21.5967 4.65 22.0133 4.755 22.38 4.965C22.7467 5.175 23.035 5.46333 23.245 5.83C23.455 6.19667 23.56 6.61333 23.56 7.08V9.72C23.56 10.1867 23.455 10.6033 23.245 10.97C23.035 11.3333 22.7467 11.6217 22.38 11.835C22.0133 12.045 21.5967 12.15 21.13 12.15ZM21.13 11.295C21.4133 11.295 21.67 11.2267 21.9 11.09C22.13 10.9533 22.3133 10.77 22.45 10.54C22.5867 10.3067 22.655 10.05 22.655 9.77V7.025C22.655 6.74167 22.5867 6.485 22.45 6.255C22.3133 6.025 22.13 5.84167 21.9 5.705C21.67 5.56833 21.4133 5.5 21.13 5.5C20.85 5.5 20.5933 5.56833 20.36 5.705C20.13 5.84167 19.9467 6.025 19.81 6.255C19.6733 6.485 19.605 6.74167 19.605 7.025V9.77C19.605 10.05 19.6733 10.3067 19.81 10.54C19.9467 10.77 20.13 10.9533 20.36 11.09C20.5933 11.2267 20.85 11.295 21.13 11.295Z" fill="#919191"/>
</svg>
