<svg width="33" height="26" viewBox="0 0 33 26" fill="none" xmlns="http://www.w3.org/2000/svg">
<path d="M10.5995 25.9006L10.5916 25.8973L10.5668 25.8839C10.4216 25.8052 10.2775 25.7245 10.1347 25.6417C8.41733 24.6367 6.81241 23.456 5.34656 22.1194C2.75056 19.7338 0 16.1937 0 11.8336C0 8.58014 2.7799 6.00008 6.13518 6.00008C7.06793 5.99558 7.9897 6.19824 8.83195 6.59299C9.6742 6.98774 10.4153 7.56442 11 8.28014C11.5849 7.56427 12.3261 6.9875 13.1686 6.59275C14.011 6.19799 14.933 5.99541 15.8659 6.00008C19.2201 6.00008 22 8.58014 22 11.8336C22 16.1948 19.2494 19.7349 16.6534 22.1183C15.1876 23.4549 13.5827 24.6356 11.8653 25.6406C11.7225 25.7237 11.5784 25.8049 11.4332 25.8839L11.4084 25.8973L11.4005 25.9017L11.3971 25.9028C11.2748 25.9666 11.1384 26 11 26C10.8616 26 10.7252 25.9666 10.6029 25.9028L10.5995 25.9006Z" fill="#3E4D31"/>
<circle cx="25" cy="8" r="7.5" fill="#E7E7E7" stroke="white"/>
<path d="M25.13 12.15C24.6633 12.15 24.2467 12.045 23.88 11.835C23.5167 11.6217 23.2283 11.3333 23.015 10.97C22.805 10.6033 22.7 10.1867 22.7 9.72V7.08C22.7 6.61333 22.805 6.19667 23.015 5.83C23.2283 5.46333 23.5167 5.175 23.88 4.965C24.2467 4.755 24.6633 4.65 25.13 4.65C25.5967 4.65 26.0133 4.755 26.38 4.965C26.7467 5.175 27.035 5.46333 27.245 5.83C27.455 6.19667 27.56 6.61333 27.56 7.08V9.72C27.56 10.1867 27.455 10.6033 27.245 10.97C27.035 11.3333 26.7467 11.6217 26.38 11.835C26.0133 12.045 25.5967 12.15 25.13 12.15ZM25.13 11.295C25.4133 11.295 25.67 11.2267 25.9 11.09C26.13 10.9533 26.3133 10.77 26.45 10.54C26.5867 10.3067 26.655 10.05 26.655 9.77V7.025C26.655 6.74167 26.5867 6.485 26.45 6.255C26.3133 6.025 26.13 5.84167 25.9 5.705C25.67 5.56833 25.4133 5.5 25.13 5.5C24.85 5.5 24.5933 5.56833 24.36 5.705C24.13 5.84167 23.9467 6.025 23.81 6.255C23.6733 6.485 23.605 6.74167 23.605 7.025V9.77C23.605 10.05 23.6733 10.3067 23.81 10.54C23.9467 10.77 24.13 10.9533 24.36 11.09C24.5933 11.2267 24.85 11.295 25.13 11.295Z" fill="#919191"/>
</svg>
