<svg width="10" height="10" viewBox="0 0 10 10" fill="none" xmlns="http://www.w3.org/2000/svg">
  <path d="M4.78265 0.463525C4.93232 0.0028702 5.58403 0.00286973 5.73371 0.463525L6.4967 2.81179C6.56364 3.0178 6.75562 3.15728 6.97223 3.15728L9.44135 3.15728C9.92571 3.15728 10.1271 3.77709 9.73524 4.06179L7.73768 5.5131C7.56244 5.64042 7.48911 5.86611 7.55605 6.07212L8.31905 8.42039C8.46872 8.88104 7.94148 9.2641 7.54963 8.9794L5.55207 7.52809C5.37683 7.40077 5.13953 7.40077 4.96428 7.52809L2.96673 8.9794C2.57487 9.2641 2.04763 8.88104 2.19731 8.42039L2.96031 6.07212C3.02724 5.86611 2.95391 5.64042 2.77867 5.5131L0.781116 4.06179C0.389259 3.77709 0.590647 3.15728 1.07501 3.15728L3.54412 3.15728C3.76074 3.15728 3.95271 3.0178 4.01965 2.81179L4.78265 0.463525Z" fill="#FFCA0E" />
</svg>